PathFileType	4	(X/Y/Z)	subject01_walk1.trc																																																																																																																									
DataRate	CameraRate	NumFrames	NumMarkers	Units	OrigDataRate	OrigDataStartFrame	OrigNumFrames																																																																																																																					
60	60	10	41	mm	60	76	151																																																																																																																					
Frame#	Time	R.ASIS			L.ASIS			V.Sacral			R.Thigh.Upper			R.Thigh.Front			R.Thigh.Rear			L.Thigh.Upper			L.Thigh.Front			L.Thigh.Rear			R.Shank.Upper			R.Shank.Front			R.Shank.Rear			L.Shank.Upper			L.Shank.Front			L.Shank.Rear			R.Heel			R.Midfoot.Sup			R.Midfoot.Lat			R.Toe.Tip			L.Heel			L.Midfoot.Sup			L.Midfoot.Lat			L.Toe.Tip			Sternum			R.Acromium			L.Acromium			R.Bicep			L.Bicep			R.Elbow			L.Elbow			R.Wrist.Med			R.Wrist.Lat			L.Wrist.Med			L.Wrist.Lat			R.Toe.Lat			R.Toe.Med			L.Toe.Lat			L.Toe.Med			R.Temple			L.Temple			Top.Head		
		X1	Y1	Z1	X2	Y2	Z2	X3	Y3	Z3	X4	Y4	Z4	X5	Y5	Z5	X6	Y6	Z6	X7	Y7	Z7	X8	Y8	Z8	X9	Y9	Z9	X10	Y10	Z10	X11	Y11	Z11	X12	Y12	Z12	X13	Y13	Z13	X14	Y14	Z14	X15	Y15	Z15	X16	Y16	Z16	X17	Y17	Z17	X18	Y18	Z18	X19	Y19	Z19	X20	Y20	Z20	X21	Y21	Z21	X22	Y22	Z22	X23	Y23	Z23	X24	Y24	Z24	X25	Y25	Z25	X26	Y26	Z26	X27	Y27	Z27	X28	Y28	Z28	X29	Y29	Z29	X30	Y30	Z30	X31	Y31	Z31	X32	Y32	Z32	X33	Y33	Z33	X34	Y34	Z34	X35	Y35	Z35	X36	Y36	Z36	X37	Y37	Z37	X38	Y38	Z38	X39	Y39	Z39	X40	Y40	Z40	X41	Y41	Z41
																																																																																																																												
76	1.25	588.90717	1051.90112	176.09511	611.34204	1044.15649	-86.37766	401.39194	1052.09277	36.13618	484.892	719.812	216.025	531.935	645.36	124.391	441.613	607.001	201.331	621.956	753.609	-138.603	721.106	751.734	-77.3372	659.736	651.271	-122.578	321.8317	474.89267	185.39595	384.59	413.24869	135.52921	304.59244	389.39871	188.93301	723.84485	444.55359	-120.93961	788.16528	414.8252	-70.33574	719.19653	397.06677	-127.96164	125.30895	110.85136	93.72926	269.94714	89.09666	68.43435	252.55435	72.9304	175.82886	397.90057	43.57354	118.86555	788.92682	65.94314	-38.27882	942.39545	128.5843	-14.68241	929.93909	116.20587	-110.95637	1055.50928	151.62457	-44.74218	630.7608	1352.5874	25.66518	541.36682	1446.78259	236.77754	561.10138	1466.69617	-180.34334	572.92871	1247.15051	286.37149	541.28284	1231.20703	-214.23495	548.97815	1141.13977	323.7467	474.46347	1144.5498	-249.07195	752.73077	970.03516	276.38257	729.37238	942.05615	332.87167	569.22961	910.14325	-209.23543	521.03668	902.47571	-266.48422	327.16116	35.49563	196.86848	346.50333	39.58302	86.43159	998.93854	118.70323	-119.93378	1010.32526	131.37224	-18.07142	706.25031	1574.83435	111.83164	717.32501	1578.33398	-26.65863	716.99762	1751.47339	51.17855
77	1.267	592.12091	1050.17151	173.94278	613.79346	1042.73096	-87.41686	403.14529	1050.25659	33.27446	485.691	718.597	214.438	531.929	643.618	122.824	441.644	606.027	200.186	626.224	753.496	-139.719	724.717	752.314	-77.3855	664.528	651.423	-123.257	320.43988	475.48355	185.88602	379.21771	411.72928	136.34866	299.95959	390.92615	189.79176	729.383	442.89023	-119.29021	791.56531	410.90384	-68.03155	721.95624	396.1712	-126.37839	110.46252	118.90062	94.50446	253.77629	91.4212	69.25362	235.76895	74.91985	176.51718	378.76181	43.49663	118.29642	776.25909	66.21741	-37.19407	932.07623	118.6921	-12.1111	920.71606	107.79183	-108.27393	1046.25684	136.49313	-40.04773	631.32336	1351.37036	22.86763	541.24548	1445.68884	232.80258	561.28442	1463.41968	-184.504	571.5769	1246.83337	282.95905	544.19885	1227.59839	-217.70937	547.38538	1140.77356	320.83554	478.72888	1140.73596	-252.69243	748.30341	966.21478	276.85489	724.73706	939.62408	332.95514	574.32568	906.59607	-211.92096	525.94489	898.37598	-269.10983	310.55685	35.2338	197.71382	328.72205	38.85844	86.36963	988.71887	106.4447	-116.61316	1000.29102	118.10107	-14.54379	706.22406	1573.83008	107.66495	716.61407	1576.32751	-30.84479	716.80841	1750.03809	46.61408
78	1.283	592.67853	1049.74915	172.69221	614.79907	1040.51758	-88.74988	405.4303	1048.93982	30.38771	486.884	718.172	213.495	533.123	643.107	121.952	443.114	605.449	199.603	629.013	753.219	-140.375	727.073	752.679	-77.3543	667.849	651.396	-123.615	319.34705	476.60358	185.31975	377.91748	411.24228	137.41992	296.34821	393.25238	190.64008	731.51483	440.74435	-116.51921	791.85492	406.76675	-65.24891	723.84161	395.7579	-125.0268	96.82625	128.66612	95.30095	238.39139	94.32256	70.16602	219.58844	77.55692	177.26138	359.62643	43.35833	117.69998	761.94867	67.26759	-36.7284	920.35413	108.76443	-10.13614	909.77673	99.27759	-106.30434	1035.29187	120.50702	-36.45026	633.01672	1349.65405	19.26443	541.0965	1445.13049	228.50049	562.85968	1460.92542	-189.34294	569.7774	1246.64709	279.78104	547.39264	1224.12512	-221.22836	545.34528	1140.96362	317.6824	482.52319	1136.75903	-255.60776	742.85657	962.13422	276.40469	719.20984	936.77179	333.52127	578.8078	903.65729	-214.43753	531.22876	895.17676	-271.93344	291.9715	34.52874	198.38135	311.17035	38.06558	86.34989	976.09753	93.45812	-114.27676	988.36212	103.98598	-12.04435	705.61139	1573.24487	103.33936	716.66742	1575.82202	-35.08792	716.3454	1749.36377	42.33414
79	1.3	595.20605	1049.30249	170.84831	618.23187	1040.23083	-89.84228	408.14334	1048.08105	27.635	489.317	718.093	212.229	535.546	642.752	120.908	445.665	605.27	198.792	632.939	753.724	-141.721	730.685	753.658	-78.2108	672.109	652.08	-124.651	320.39255	477.51105	186.71147	376.44724	409.97549	139.58353	293.89526	395.27939	191.82468	735.64758	441.74207	-116.46951	793.12976	405.43375	-63.825	725.00452	395.78363	-124.50978	84.89841	140.50372	96.23734	224.20485	98.14903	71.04609	204.30328	81.18244	177.97964	340.65033	43.05088	117.11312	747.10052	68.82729	-36.77527	908.0321	100.14164	-8.50622	897.60382	91.53664	-105.01044	1023.13837	105.59505	-34.15118	634.61023	1349.26404	14.92669	540.85596	1445.66394	223.17328	564.62317	1458.79688	-194.50566	568.76685	1246.86023	276.25317	548.89032	1221.48767	-223.94221	542.78717	1141.78015	314.2709	486.93613	1133.94629	-259.26276	736.86182	957.98669	277.92291	711.82483	933.93164	334.06302	583.87012	900.73853	-217.31906	535.49164	892.41046	-274.56244	273.32974	34.34725	198.69417	293.87927	37.31418	86.3706	962.02063	81.29327	-112.83779	975.12933	90.89083	-10.47749	706.18365	1573.20581	99.1187	717.89709	1575.90344	-39.49527	716.40448	1749.37708	37.1127
80	1.317	597.9577	1049.40576	168.77008	621.88696	1041.302	-91.22143	411.16498	1047.64453	25.15304	494.61	718.334	210.892	541.562	643.049	119.895	452.11	605.008	198.001	636.795	754.575	-143.481	734.332	754.68	-79.6508	675.981	652.987	-126.12	325.76624	480.22952	188.58653	378.48074	408.59332	140.7802	295.04089	398.5976	191.50168	738.00269	442.28	-117.70245	793.70764	403.82965	-63.51654	725.24585	396.06329	-125.17695	75.51638	154.80304	97.37206	211.75375	103.2616	71.83661	190.2545	86.22167	178.57404	322.02585	42.47935	116.61682	731.90985	70.53569	-37.1697	895.10663	93.30676	-7.29547	884.21167	85.08185	-104.3698	1009.81366	92.65924	-33.04971	636.99188	1350.4248	10.79742	539.85065	1446.45544	218.99651	567.33545	1457.55591	-199.52928	567.5188	1248.29651	272.24075	555.59949	1220.5127	-228.58307	539.74109	1143.29688	310.58188	491.69882	1131.43933	-262.33679	730.00177	954.88934	278.84601	703.38477	931.62372	335.5658	590.31256	898.64343	-219.8582	541.11194	889.88696	-277.16736	256.36679	33.33099	198.67349	277.07776	36.96362	86.355	946.99286	70.83085	-112.10049	960.87048	79.9099	-9.64497	704.86493	1573.93188	95.02638	718.11938	1576.92346	-43.8217	716.32526	1750.77124	32.39664
81	1.333	600.92035	1049.99768	166.96565	625.38898	1042.93665	-93.44888	414.34946	1047.63953	22.98723	501.984	719.094	209.878	550.586	644.114	119.497	461.661	604.905	197.627	640.082	755.549	-145.426	737.467	755.509	-81.3635	678.969	653.89	-127.811	334.41626	482.05463	190.3076	385.30646	407.40451	142.59242	299.76041	401.96988	193.45686	736.57355	442.5354	-117.91107	791.66705	402.0256	-64.03943	723.9762	396.36975	-126.96828	69.73737	171.81421	98.44942	201.65662	109.91447	72.59211	177.85255	93.1064	178.94296	303.90887	41.50936	116.43434	716.1651	72.06707	-37.80243	881.14807	88.10634	-6.83138	869.54169	80.04092	-104.40441	995.24536	81.88931	-32.92321	638.37866	1351.68408	7.16667	540.59314	1448.17627	213.25887	568.81573	1457.73401	-204.61111	565.54657	1249.94385	267.91006	559.74542	1219.6145	-232.03819	536.28156	1145.50696	306.62579	498.14374	1129.7948	-265.61984	722.44324	951.16693	280.36142	692.32385	931.04877	336.86237	595.93793	896.83911	-221.75031	546.59625	887.94208	-279.30524	239.75539	34.7496	198.19809	261.1727	37.59421	86.30458	931.24731	62.33704	-111.9407	945.65063	71.34413	-9.44173	706.62317	1576.25525	90.22325	719.17688	1578.46692	-48.4196	715.43933	1752.27478	27.77803
82	1.35	604.22089	1051.42102	164.0497	628.7229	1045.96619	-95.96793	417.50656	1048.06531	21.03904	511.406	720.591	209.3	562.863	646.036	120.155	474.354	605.209	197.928	642.749	756.64	-147.818	739.975	756.019	-83.5178	680.871	654.738	-129.938	347.97333	482.41626	191.08212	394.51303	405.98752	145.93231	308.43851	405.20511	194.42406	734.72479	442.32956	-120.76845	787.55994	400.54678	-64.85323	720.65918	396.55487	-129.5578	68.60076	191.49252	99.07779	194.54587	118.15807	73.45918	167.68047	102.20374	179.0493	286.51752	39.97352	116.87379	699.69843	73.20213	-38.65022	865.85596	84.16183	-7.25542	853.63037	76.24464	-105.0779	979.49341	73.18108	-33.56293	639.97571	1353.52661	2.69266	539.95953	1449.77124	209.02666	570.56146	1457.7749	-208.96103	563.93506	1252.62671	263.79938	565.98462	1220.13	-235.79462	532.47345	1148.28845	302.45551	505.12598	1128.67224	-269.13495	713.70068	948.57434	282.76862	682.25146	929.7215	338.30829	601.57422	896.2356	-224.26582	553.0506	886.96313	-280.99313	223.60344	36.87084	198.29929	246.61395	39.78391	86.40714	914.95392	55.76024	-112.32455	929.49573	64.97951	-9.84525	706.83844	1578.14282	85.00451	720.23694	1580.6311	-52.5431	713.20142	1753.97009	23.32139
83	1.367	607.62128	1053.07129	160.47549	631.64368	1048.82068	-99.29385	420.40039	1048.87561	19.08388	522.237	722.817	209.301	577.901	648.887	122.187	489.782	605.937	199.256	643.806	757.405	-150.86	740.934	755.824	-86.4297	680.725	655.115	-132.671	364.58456	483.09753	194.50839	407.87473	404.63046	147.89534	320.46591	408.48044	197.84688	730.64532	441.95724	-123.97008	781.28015	398.75281	-66.87711	715.02679	396.57825	-132.52263	72.95761	213.3777	99.0482	190.98845	127.80871	74.58433	160.54248	113.68744	178.96239	270.33896	37.82413	118.14784	682.53839	73.87901	-39.71849	849.30475	81.173	-8.29023	836.63995	73.45835	-106.16966	962.75879	66.39281	-34.75788	641.1604	1356.34875	-1.20435	540.21545	1452.75598	204.8156	572.38544	1459.35791	-214.01601	561.66571	1255.20972	260.15372	571.21777	1220.21619	-238.82103	528.37317	1151.46423	298.17459	513.55048	1128.13672	-272.02557	704.18835	946.4856	284.55276	671.49274	928.56903	339.36826	608.54407	895.92426	-226.71663	560.17023	886.74835	-283.71539	207.00465	39.90817	197.88147	233.94183	43.88892	86.93961	898.22247	50.9468	-113.1413	912.51367	60.43309	-10.74661	704.96216	1580.54553	81.49422	720.75391	1582.9248	-57.06994	714.83459	1756.82214	18.94653
84	1.383	610.24341	1054.51331	156.66705	634.04449	1051.40991	-102.68336	422.7691	1050.00464	16.89082	533.469	725.913	210.181	594.526	652.882	125.97	506.818	607.426	202.066	643.329	757.903	-154.331	740.35	755.011	-89.7842	678.631	655.108	-135.784	384.81567	484.69516	196.61533	424.02484	403.65039	151.04338	336.88062	411.79132	199.19193	722.9223	440.98834	-127.96081	771.83124	396.73007	-68.92097	707.01605	396.46515	-135.44293	83.1851	236.49263	98.37334	191.41273	138.49393	75.99792	157.32503	127.34642	178.79979	256.4133	35.384	120.23669	664.83014	74.18172	-40.88969	831.75708	78.95263	-9.45933	818.84424	71.53674	-107.33792	945.27679	61.38046	-36.1996	642.38898	1358.7533	-4.66966	541.68488	1456.0304	200.5356	573.88068	1460.79578	-217.9702	558.77222	1258.328	256.36496	576.82043	1221.18103	-241.76404	524.06732	1154.88208	293.95428	520.58643	1128.34521	-274.36282	694.37006	944.68988	286.86969	659.58893	927.64789	339.86905	616.90546	896.04047	-229.40862	568.47119	886.58942	-285.79205	194.00246	46.47063	198.16704	224.00105	49.96963	88.07691	881.02881	47.68734	-114.13638	894.87091	57.33222	-11.85986	705.32196	1583.44885	77.93627	720.22107	1585.90308	-60.43885	713.58612	1759.58459	14.82569
85	1.4	612.63763	1056.68579	153.9418	635.22931	1053.66516	-105.65951	424.4108	1051.4071	14.3841	544.514	729.869	211.788	611.254	658.149	130.826	524.232	609.991	206.041	641.597	758.333	-157.692	738.453	753.908	-92.9842	675.021	654.981	-138.765	408.2077	485.84006	197.91237	442.32031	403.25574	153.42116	355.65369	415.89862	200.98366	713.508	440.71017	-130.09402	762.02478	395.45679	-71.91023	696.78607	396.27808	-138.04089	98.68818	259.33514	97.13364	196.05853	149.73439	77.55762	158.74014	142.50027	178.64804	246.52106	33.52863	122.92198	646.72729	74.2581	-41.92367	813.47998	77.35084	-10.42067	800.54816	70.35513	-108.32283	927.23767	57.92173	-37.53672	643.30048	1361.88782	-7.41927	540.94611	1459.52148	196.86891	575.22827	1462.21777	-221.49257	556.40399	1261.11035	252.88159	583.25378	1222.53027	-243.67279	519.6485	1158.4353	290.01019	527.91785	1128.60388	-276.53137	683.5495	942.80939	288.60321	647.36212	927.22955	340.61865	623.83606	895.94299	-230.15021	577.03705	887.32782	-288.0564	184.07036	56.15947	197.60373	218.1362	57.84079	89.80396	863.29706	45.71368	-115.05914	876.76678	55.34435	-12.85298	705.20441	1586.81665	73.87362	720.31012	1588.99207	-64.16257	712.53552	1764.24011	10.55359
